<?xml version="1.0" encoding="UTF-8"?>
<!DOCTYPE svg PUBLIC "-//W3C//DTD SVG 1.1//EN" "http://www.w3.org/Graphics/SVG/1.1/DTD/svg11.dtd">
<svg version="1.1" xmlns="http://www.w3.org/2000/svg" xmlns:xlink="http://www.w3.org/1999/xlink" x="0" y="0" width="283.465" height="141.732" viewBox="0, 0, 283.465, 141.732">
  <g id="Layer_1">
    <path d="M-0,-2.558 z M239.757,36.702 L239.768,36.831 C239.768,36.831 233.884,41.721 224.662,42.88 C219.144,43.38 213.496,42.516 208.607,39.802 C206.576,41.376 207.432,40.637 205.991,41.959 Q202.446,45.398 200.489,50.213 Q198.531,55.028 198.531,60.953 Q198.531,66.879 200.383,70.742 Q202.235,74.604 205.25,77.143 Q208.266,79.683 212.129,81.217 Q215.991,82.752 220.012,84.022 Q223.398,85.186 225.779,86.138 Q228.16,87.09 229.641,88.201 Q231.123,89.313 231.758,90.635 Q232.393,91.958 232.393,93.757 Q232.393,96.72 229.906,99.048 Q227.419,101.376 222.34,101.376 Q217.896,101.376 213.346,99.365 Q208.795,97.355 204.139,93.228 L195.251,109.947 Q208.16,118.942 223.292,118.942 Q230.594,118.942 236.361,116.984 Q242.128,115.026 246.096,111.481 Q250.064,107.936 252.128,102.963 Q254.191,97.99 254.191,91.852 Q254.191,82.752 249.482,77.091 Q244.773,71.429 234.615,68.043 Q232.075,67.197 229.483,66.456 Q226.89,65.715 224.827,64.71 Q222.763,63.705 221.493,62.329 Q220.224,60.953 220.224,58.837 Q220.224,55.768 222.763,53.864 Q225.303,51.959 229.324,51.959 Q232.499,51.959 235.885,53.282 Q239.271,54.604 242.657,57.355 L250.911,41.165 C247.324,39.38 243.67,37.657 239.757,36.702 z M237.204,29.328 L236.93,29.328 L209.177,32.493 L209.543,37.8 C209.543,37.8 215.848,41.864 224.087,40.991 C232.326,40.117 237.655,35.861 237.655,35.861 L237.204,29.328 z M245.922,19.61 L245.922,19.61 C245.923,19.61 246.252,20.17 246.252,20.17 C246.252,20.17 248.778,23.748 249.911,26.446 C250.835,28.644 250.962,33.538 250.962,33.538 C250.962,33.538 258.235,33.543 258.235,33.543 C258.235,33.543 258.411,27.305 255.605,23.61 C253.461,20.786 245.923,19.61 245.922,19.61 z M260,3.229 L206.028,9.785 L191.359,33.155 L245.331,26.598 L246.981,23.97 C246.502,23.144 246.757,23.573 246.213,22.685 C245.741,21.933 245.235,21.182 244.728,20.467 C244.423,20.039 244.559,20.227 244.32,19.9 C244.057,20.032 244.237,19.958 243.754,20.04 C242.558,20.123 241.52,19.22 241.438,18.023 C241.454,17.512 241.404,17.722 241.521,17.382 L241.458,17.359 L240.606,17.081 L239.489,16.791 L238.385,16.596 L237.289,16.49 L236.196,16.461 L235.108,16.484 L234.006,16.581 L232.881,16.745 L231.739,16.941 L230.56,17.192 L229.349,17.463 L228.088,17.775 L226.786,18.083 L225.425,18.413 L224.725,18.573 C224.428,18.663 224.282,18.442 224.398,18.079 C224.515,17.716 224.85,17.349 225.146,17.259 L225.884,16.985 L227.304,16.49 L228.666,16.045 L229.966,15.685 L231.222,15.376 L232.43,15.149 L233.605,14.983 L234.74,14.91 L235.851,14.906 L236.943,14.976 L238.007,15.153 L239.056,15.421 L240.099,15.781 L241.142,16.239 L241.866,16.623 C242.231,16.04 242.811,15.817 243.455,15.707 C244.652,15.624 245.689,16.527 245.772,17.724 L245.761,18.067 L246.072,18.133 C247.299,18.403 248.527,18.737 249.678,19.138 L249.947,19.244 L260,3.229 z M84.481,29.83 L91.986,34.908 C91.472,36.13 91.653,35.463 91.506,36.924 C91.629,38.148 91.764,39.562 92.788,40.419 L78.216,79.471 L64.937,44.12 C65.614,43.835 66.358,43.674 66.968,43.265 C68.582,42.183 69.405,40.427 69.481,38.539 C69.332,37.056 69.515,37.745 68.975,36.462 L76.774,30.061 C77.892,31.179 78.966,31.531 80.512,31.586 C81.999,31.436 83.533,31.108 84.481,29.83 z M35.831,8.746 L35.208,8.749 L34.392,8.798 C31.985,9.769 32.914,9.161 31.445,10.353 C30.502,11.499 29.642,12.806 29.866,14.371 L21.186,16.266 C20.444,14.428 20.924,15.198 19.861,13.888 C18.562,12.873 17.275,12.147 15.562,12.257 L14.747,12.305 C12.339,13.277 13.269,12.669 11.799,13.86 C9.566,16.079 9.553,19.688 11.772,21.922 C13.99,24.155 17.599,24.168 19.833,21.949 C20.639,20.97 21.545,19.838 21.41,18.474 L30.293,16.534 C30.834,17.874 30.467,17.243 31.417,18.414 C31.715,18.658 31.97,18.965 32.309,19.147 C33.614,19.848 35.304,20.516 36.8,19.888 L40.574,29.765 C38.599,30.596 37.614,32.675 37.521,34.719 C37.757,37.064 38.811,39.18 41.199,39.936 L28.164,116.719 L48.799,116.719 L55.677,70.794 L73.56,116.719 L81.814,116.719 L100.649,70.794 L107.528,116.719 L128.162,116.719 L114.617,36.933 L102.905,36.933 L102.906,36.924 C102.906,33.776 100.354,31.224 97.206,31.224 C95.679,31.377 94.136,31.733 93.169,33.046 L85.695,27.989 C86.246,26.679 86.062,27.378 86.212,25.885 C86.212,22.737 83.66,20.185 80.512,20.185 L80.512,20.185 C77.364,20.185 74.812,22.737 74.812,25.885 C74.973,27.486 74.779,26.679 75.457,28.291 L67.762,34.605 C66.433,33.276 65.723,32.934 63.781,32.838 C61.197,33.099 59.164,34.342 58.389,36.933 L48.357,36.933 C48.955,35.513 48.767,36.251 48.921,34.719 C48.921,31.571 46.369,29.019 43.221,29.019 L42.67,29.074 L38.814,18.981 L39.479,18.442 C41.712,16.223 41.725,12.614 39.506,10.38 C38.393,9.586 37.252,8.81 35.831,8.746 z M162.024,36.933 L141.283,36.933 L141.283,116.719 L186.891,116.719 L186.891,99.154 L162.024,99.154 L162.024,36.933 z M173.275,37.431 L173.275,37.431 C171.206,38.102 170.635,38.555 170.264,40.827 C169.637,47.137 182.908,48.986 184.119,56.702 L184.119,56.702 L184.217,57.456 L184.272,58.175 L184.286,58.861 L184.26,59.516 L184.197,60.143 L184.099,60.742 L183.967,61.316 L183.804,61.869 L183.61,62.402 L183.386,62.917 L183.134,63.417 L182.854,63.903 L182.547,64.377 L182.214,64.842 L181.857,65.296 L181.475,65.743 L181.071,66.184 L180.419,66.839 L179.487,67.694 L179.064,68.052 L179.341,67.761 C180.859,63.795 182.381,58.491 179.551,54.697 C178.978,53.929 178.047,53.134 177.137,52.835 C176.454,52.61 175.711,52.64 174.999,52.543 C172.718,53.252 171.962,53.726 171.504,56.247 C171.298,59.267 173.671,59.064 175.502,60.611 C177.234,62.075 177.775,64.172 177.865,66.35 C177.917,67.623 177.869,68.041 177.792,69.1 L177.453,69.373 L176.372,70.222 L175.265,71.09 L174.147,71.986 L173.032,72.922 L171.933,73.909 L171.308,74.515 C172.665,71.297 175.314,68.455 175.453,64.835 C175.243,63.45 174.502,62.644 173.082,62.444 C171.424,62.507 169.868,62.863 169.213,64.592 C168.962,65.598 168.804,66.083 168.761,67.25 C168.641,70.477 169.702,73.652 169.199,76.872 L169.102,76.993 L168.638,77.622 L168.195,78.275 L167.774,78.955 L167.378,79.662 L167.008,80.397 L166.666,81.161 L166.356,81.956 L166.078,82.781 L165.834,83.639 L165.627,84.53 L165.458,85.454 L165.328,86.413 L165.24,87.408 L165.195,88.438 L165.194,89.506 L165.211,90.066 C165.23,90.675 165.738,91.153 166.347,91.134 C166.955,91.115 167.433,90.606 167.414,89.997 L167.398,89.506 L167.397,88.533 L167.436,87.6 L167.513,86.706 L167.627,85.849 L167.775,85.027 L167.956,84.238 L168.168,83.482 L168.41,82.756 L168.681,82.057 L168.978,81.385 L169.113,81.115 C169.91,80.922 169.695,80.954 171.33,81.276 C173.904,81.784 175.989,82.982 178.571,81.713 C181.759,80.088 180.715,76.462 177.934,76.531 C175.438,76.696 172.948,77.218 170.751,78.47 L170.828,78.365 L171.261,77.818 L171.713,77.288 L172.181,76.772 L172.659,76.275 L173.407,75.549 L174.449,74.611 L175.527,73.706 L176.625,72.824 L176.877,72.628 C179.66,73.198 182.502,73.333 185.302,72.78 C187.257,72.393 189.16,71.654 190.815,70.537 C192.736,69.241 196.11,65.643 193.649,63.283 C192.831,62.499 191.696,62.263 190.611,62.167 C185.781,62.309 184.623,68.357 180.353,69.849 L180.978,69.317 L181.983,68.392 L182.696,67.673 L183.154,67.172 L183.592,66.656 L184.009,66.122 L184.402,65.57 L184.768,64.997 L185.105,64.403 L185.411,63.788 L185.684,63.149 L185.92,62.487 L186.118,61.801 L186.276,61.091 C187.027,58.414 187.499,55.775 187.278,52.976 C186.709,45.772 181.108,37.484 173.275,37.431 z M137.089,2.015 L137.089,2.015 C132.489,3.564 131.253,9.736 134.251,13.4 C135.836,15.335 138.177,16.493 140.537,17.173 C141.752,17.508 141.068,17.332 142.593,17.68 L142.469,17.698 L141.582,17.854 L140.712,18.037 L139.858,18.246 L139.023,18.481 L138.207,18.744 L137.414,19.033 C135.326,19.221 133.239,18.193 131.488,17.191 C127.233,14.47 131.102,7.168 125.262,6.153 L124.509,6.071 C118.291,6.719 120.048,13.711 123.527,16.713 C125.907,18.767 129.042,19.707 132.135,19.908 C133.269,19.97 134.405,20.016 135.537,19.879 L135.165,20.071 L134.467,20.474 L133.796,20.906 L133.698,20.976 C131.61,22.051 130.25,22.706 127.848,22.024 C124.244,20.852 122.072,17.277 118.327,16.531 L117.459,16.652 C112.533,18.523 114.862,24.434 118.659,26.17 C121.098,27.285 123.892,27.089 126.371,26.213 C128.408,25.494 128.753,25.176 130.418,24.142 C126.664,27.996 123.755,31.537 124.622,37.199 C125.039,41.086 132.35,44.253 134.109,39.437 C135.827,34.031 130.237,32.501 131.177,27.403 L131.295,27.1 L131.563,26.53 L131.869,25.983 L132.211,25.458 L132.589,24.955 L133.002,24.473 L133.45,24.012 L133.932,23.572 L134.446,23.154 L134.993,22.757 L135.571,22.382 L136.179,22.029 L136.815,21.698 L137.479,21.39 L138.169,21.104 L138.885,20.842 L139.623,20.602 L140.384,20.387 L140.516,20.354 C136.763,21.974 132.395,29.925 138.552,31.155 C145.768,31.663 140.89,21.571 146.405,19.531 L147.095,19.511 L147.99,19.508 L148.893,19.53 L149.796,19.574 L151.162,19.685 L153.003,19.916 L153.535,20.011 C151.521,20.515 149.604,21.226 147.894,22.438 C144.536,24.534 143.975,30.862 148.359,30.986 C153.116,30.835 151.806,21.474 157.133,20.782 L157.139,20.783 L158.042,21.039 L158.938,21.318 L159.824,21.619 L160.7,21.944 L161.435,22.239 C159.238,22.761 156.251,23.247 154.658,25.081 C152.468,27.604 155.727,30.423 158.336,29.424 C161.608,27.897 159.355,25.596 160.862,24.43 C162.075,23.613 163.18,23.387 164.615,23.76 L164.873,23.9 L165.657,24.358 L166.421,24.837 L167.164,25.337 L167.884,25.859 L168.579,26.401 L169.25,26.965 L169.894,27.549 L170.511,28.153 L171.099,28.778 L171.657,29.423 L172.191,30.099 L172.457,30.46 C172.818,30.95 173.508,31.054 173.998,30.693 C174.488,30.332 174.593,29.642 174.231,29.151 L173.965,28.791 L173.387,28.057 L172.768,27.338 L172.118,26.645 L171.439,25.976 L170.732,25.333 L169.999,24.715 L169.241,24.121 L168.459,23.553 L167.654,23.01 L166.83,22.491 L165.986,21.997 L165.123,21.528 L164.245,21.084 L163.351,20.664 L162.443,20.269 L161.522,19.898 L160.591,19.552 L159.649,19.231 L158.698,18.934 L157.741,18.662 L156.777,18.415 L155.513,18.133 C150.518,16.343 156.346,6.186 150.182,5.097 C145.271,4.62 145.492,9.833 146.999,13.083 C147.529,14.228 148.522,15.471 149.48,16.327 C150.406,17.154 150.404,17.148 150.983,17.46 L149.976,17.377 L149.003,17.328 L148.043,17.304 L147.09,17.306 L146.144,17.333 L145.847,17.35 C144.277,16.559 142.956,15.601 142.154,13.961 C140.488,10.552 142.691,6.085 139.742,3.1 C138.977,2.359 138.21,1.888 137.089,2.015 z" fill="#4C3186"/>
    <path d="M45.312,130.782 L46.612,130.782 Q48.772,130.782 48.772,128.902 Q48.772,127.022 46.612,127.022 L45.312,127.022 z M45.312,138.942 L41.392,138.942 L41.392,123.862 L47.632,123.862 Q50.172,123.862 51.522,125.182 Q52.872,126.502 52.872,128.902 Q52.872,131.302 51.522,132.622 Q50.172,133.942 47.632,133.942 L45.312,133.942 z" fill="#4C3186"/>
    <path d="M58.872,129.682 L64.532,129.682 L64.532,123.862 L68.452,123.862 L68.452,138.942 L64.532,138.942 L64.532,132.722 L58.872,132.722 L58.872,138.942 L54.952,138.942 L54.952,123.862 L58.872,123.862 z" fill="#4C3186"/>
    <path d="M75.532,135.622 L76.432,135.622 Q77.452,135.622 78.252,135.302 Q79.052,134.982 79.602,134.422 Q80.152,133.862 80.442,133.092 Q80.732,132.322 80.732,131.402 Q80.732,130.502 80.432,129.722 Q80.132,128.942 79.582,128.382 Q79.032,127.822 78.232,127.502 Q77.432,127.182 76.432,127.182 L75.532,127.182 z M71.612,123.862 L77.412,123.862 Q78.952,123.862 80.302,124.482 Q81.652,125.102 82.662,126.132 Q83.672,127.162 84.252,128.532 Q84.832,129.902 84.832,131.402 Q84.832,132.882 84.262,134.252 Q83.692,135.622 82.682,136.662 Q81.672,137.702 80.322,138.322 Q78.972,138.942 77.412,138.942 L71.612,138.942 z" fill="#4C3186"/>
    <path d="M98.052,130.602 L98.792,130.602 Q99.952,130.602 100.572,130.122 Q101.192,129.642 101.192,128.742 Q101.192,127.842 100.572,127.362 Q99.952,126.882 98.792,126.882 L98.052,126.882 z M106.672,138.942 L101.792,138.942 L98.052,133.142 L98.052,138.942 L94.132,138.942 L94.132,123.862 L100.232,123.862 Q101.492,123.862 102.432,124.232 Q103.372,124.602 103.982,125.242 Q104.592,125.882 104.902,126.722 Q105.212,127.562 105.212,128.522 Q105.212,130.242 104.382,131.312 Q103.552,132.382 101.932,132.762 z" fill="#4C3186"/>
    <path d="M116.892,127.182 L112.232,127.182 L112.232,129.702 L116.632,129.702 L116.632,133.022 L112.232,133.022 L112.232,135.622 L116.892,135.622 L116.892,138.942 L108.312,138.942 L108.312,123.862 L116.892,123.862 z" fill="#4C3186"/>
    <path d="M125.432,127.182 L125.432,138.942 L121.512,138.942 L121.512,127.182 L118.292,127.182 L118.292,123.862 L128.652,123.862 L128.652,127.182 z" fill="#4C3186"/>
    <path d="M134.312,130.602 L135.052,130.602 Q136.212,130.602 136.832,130.122 Q137.452,129.642 137.452,128.742 Q137.452,127.842 136.832,127.362 Q136.212,126.882 135.052,126.882 L134.312,126.882 z M142.932,138.942 L138.052,138.942 L134.312,133.142 L134.312,138.942 L130.392,138.942 L130.392,123.862 L136.492,123.862 Q137.752,123.862 138.692,124.232 Q139.632,124.602 140.242,125.242 Q140.852,125.882 141.162,126.722 Q141.472,127.562 141.472,128.522 Q141.472,130.242 140.642,131.312 Q139.812,132.382 138.192,132.762 z" fill="#4C3186"/>
    <path d="M153.152,127.182 L148.492,127.182 L148.492,129.702 L152.892,129.702 L152.892,133.022 L148.492,133.022 L148.492,135.622 L153.152,135.622 L153.152,138.942 L144.572,138.942 L144.572,123.862 L153.152,123.862 z" fill="#4C3186"/>
    <path d="M164.172,133.342 L162.412,128.322 L160.652,133.342 z M165.212,136.322 L159.612,136.322 L158.712,138.942 L154.532,138.942 L160.272,123.862 L164.552,123.862 L170.292,138.942 L166.112,138.942 z" fill="#4C3186"/>
    <path d="M177.072,127.182 L177.072,138.942 L173.152,138.942 L173.152,127.182 L169.932,127.182 L169.932,123.862 L180.292,123.862 L180.292,127.182 z" fill="#4C3186"/>
    <path d="M199.952,138.942 L187.812,138.942 L191.552,135.062 Q193.032,133.522 193.872,132.452 Q194.712,131.382 195.122,130.642 Q195.532,129.902 195.632,129.442 Q195.732,128.982 195.732,128.662 Q195.732,128.322 195.622,128.002 Q195.512,127.682 195.292,127.432 Q195.072,127.182 194.762,127.032 Q194.452,126.882 194.032,126.882 Q193.232,126.882 192.782,127.402 Q192.332,127.922 192.332,128.702 Q192.332,128.922 192.392,129.342 L188.112,129.342 Q188.112,128.022 188.542,126.942 Q188.972,125.862 189.752,125.082 Q190.532,124.302 191.602,123.882 Q192.672,123.462 193.952,123.462 Q195.212,123.462 196.282,123.862 Q197.352,124.262 198.132,124.982 Q198.912,125.702 199.352,126.692 Q199.792,127.682 199.792,128.842 Q199.792,130.082 199.262,131.132 Q198.732,132.182 197.572,133.282 L195.072,135.622 L199.952,135.622 z" fill="#4C3186"/>
    <path d="M205.132,131.382 Q205.132,132.382 205.312,133.202 Q205.492,134.022 205.822,134.622 Q206.152,135.222 206.612,135.552 Q207.072,135.882 207.652,135.882 Q208.212,135.882 208.682,135.552 Q209.152,135.222 209.472,134.622 Q209.792,134.022 209.972,133.202 Q210.152,132.382 210.152,131.382 Q210.152,130.402 209.972,129.572 Q209.792,128.742 209.472,128.152 Q209.152,127.562 208.682,127.232 Q208.212,126.902 207.652,126.902 Q207.072,126.902 206.612,127.232 Q206.152,127.562 205.822,128.152 Q205.492,128.742 205.312,129.572 Q205.132,130.402 205.132,131.382 z M201.252,131.382 Q201.252,129.582 201.722,128.112 Q202.192,126.642 203.042,125.602 Q203.892,124.562 205.062,123.992 Q206.232,123.422 207.652,123.422 Q209.052,123.422 210.232,123.992 Q211.412,124.562 212.252,125.602 Q213.092,126.642 213.562,128.112 Q214.032,129.582 214.032,131.382 Q214.032,133.182 213.562,134.652 Q213.092,136.122 212.252,137.172 Q211.412,138.222 210.232,138.792 Q209.052,139.362 207.652,139.362 Q206.232,139.362 205.062,138.792 Q203.892,138.222 203.042,137.172 Q202.192,136.122 201.722,134.652 Q201.252,133.182 201.252,131.382 z" fill="#4C3186"/>
    <path d="M227.152,138.942 L215.012,138.942 L218.752,135.062 Q220.232,133.522 221.072,132.452 Q221.912,131.382 222.322,130.642 Q222.732,129.902 222.832,129.442 Q222.932,128.982 222.932,128.662 Q222.932,128.322 222.822,128.002 Q222.712,127.682 222.492,127.432 Q222.272,127.182 221.962,127.032 Q221.652,126.882 221.232,126.882 Q220.432,126.882 219.982,127.402 Q219.532,127.922 219.532,128.702 Q219.532,128.922 219.592,129.342 L215.312,129.342 Q215.312,128.022 215.742,126.942 Q216.172,125.862 216.952,125.082 Q217.732,124.302 218.802,123.882 Q219.872,123.462 221.152,123.462 Q222.412,123.462 223.482,123.862 Q224.552,124.262 225.332,124.982 Q226.112,125.702 226.552,126.692 Q226.992,127.682 226.992,128.842 Q226.992,130.082 226.462,131.132 Q225.932,132.182 224.772,133.282 L222.272,135.622 L227.152,135.622 z" fill="#4C3186"/>
    <path d="M234.032,129.742 Q234.192,129.762 234.302,129.762 Q234.412,129.762 234.492,129.762 Q235.232,129.762 235.692,129.322 Q236.152,128.882 236.152,128.182 Q236.152,127.502 235.722,127.082 Q235.292,126.662 234.612,126.662 Q233.892,126.662 233.452,127.142 Q233.012,127.622 233.012,128.382 L229.392,128.382 Q229.532,127.202 229.982,126.282 Q230.432,125.362 231.132,124.732 Q231.832,124.102 232.772,123.772 Q233.712,123.442 234.852,123.442 Q235.972,123.442 236.882,123.752 Q237.792,124.062 238.442,124.632 Q239.092,125.202 239.442,126.012 Q239.792,126.822 239.792,127.822 Q239.792,128.902 239.382,129.592 Q238.972,130.282 238.212,130.782 Q239.372,131.142 240.022,132.072 Q240.672,133.002 240.672,134.362 Q240.672,135.482 240.232,136.402 Q239.792,137.322 239.002,137.982 Q238.212,138.642 237.122,139.002 Q236.032,139.362 234.732,139.362 Q232.992,139.362 231.592,138.682 Q230.192,138.002 229.352,136.522 Q228.972,135.862 228.842,135.202 Q228.712,134.542 228.712,133.862 L232.592,133.862 Q232.632,134.922 233.212,135.472 Q233.792,136.022 234.772,136.022 Q235.812,136.022 236.292,135.462 Q236.772,134.902 236.772,134.082 Q236.772,133.102 236.192,132.602 Q235.612,132.102 234.812,132.102 Q234.612,132.102 234.432,132.132 Q234.252,132.162 234.032,132.202 z" fill="#4C3186"/>
  </g>
</svg>
